<?xml version="1.0" encoding="UTF-8" standalone="no"?>
<svg
   xmlns:dc="http://purl.org/dc/elements/1.1/"
   xmlns:cc="http://creativecommons.org/ns#"
   xmlns:rdf="http://www.w3.org/1999/02/22-rdf-syntax-ns#"
   xmlns:svg="http://www.w3.org/2000/svg"
   xmlns="http://www.w3.org/2000/svg"
   version="1.1"
   viewBox="0 0 137.144 137.144"
   enable-background="new 0 0 137.144 137.144"
   id="svg39">
  <defs
     id="defs43" />
  <path
     d="M 78.8585,30.8575 109.716,27.429 v 61.715 c 0,7.574 -7.675,13.715 -17.143,13.715 -9.468,0 -17.143,-6.141 -17.143,-13.715 0,-7.574 7.675,-13.714 17.143,-13.714 1.174,0 2.32,0.096 3.428,0.276 V 49.524 L 78.858,51.429 M 109.715,0 H 27.429 C 12.28,0 0,12.28 0,27.429 v 82.287 c 0,15.148 12.28,27.429 27.429,27.429 h 82.286 c 15.149,0 27.429,-12.28 27.429,-27.429 V 27.429 C 137.144,12.28 124.864,0 109.715,0 Z m 13.715,102.858 c 0,11.362 -9.21,20.571 -20.571,20.571 H 34.286 c -11.361,0 -20.572,-9.21 -20.572,-20.571 V 34.286 c 0,-11.361 9.21,-20.572 20.572,-20.572 h 68.572 c 11.361,0 20.571,9.21 20.571,20.572 v 68.572 z"
     id="path37" />
  <g
     aria-label="FX"
     id="text49"
     style="font-style:normal;font-weight:normal;font-size:40px;line-height:1.25;font-family:sans-serif;fill:#000000;fill-opacity:1;stroke:none">
    <path
       d="M 43.596273,30.519135 H 28.889242 v 8.203125 h 12.636719 v 3.4375 H 28.889242 V 56.163666 H 25.022055 V 27.081635 h 18.574218 z"
       id="path51" />
    <path
       d="m 70.197836,27.081635 -10.039063,14.375 10.019532,14.707031 h -4.472657 l -7.929687,-11.972656 -8.125,11.972656 h -4.21875 L 55.56893,41.632416 45.666586,27.081635 h 4.453125 l 7.832031,11.816406 8.007813,-11.816406 z"
       id="path53" />
  </g>
</svg>
